<mxfile host="65bd71144e">
    <diagram id="AuHcvMdplLXh5HutYveu" name="Page-1">
        <mxGraphModel dx="1491" dy="1269" grid="1" gridSize="10" guides="1" tooltips="1" connect="1" arrows="1" fold="1" page="1" pageScale="1" pageWidth="1100" pageHeight="850" math="0" shadow="0">
            <root>
                <mxCell id="0"/>
                <mxCell id="1" parent="0"/>
                <mxCell id="167" value="" style="rounded=0;whiteSpace=wrap;html=1;" vertex="1" parent="1">
                    <mxGeometry x="170" y="120" width="760" height="610" as="geometry"/>
                </mxCell>
                <mxCell id="154" value="member" style="shape=table;startSize=30;container=1;collapsible=1;childLayout=tableLayout;fixedRows=1;rowLines=0;fontStyle=1;align=center;resizeLast=1;" vertex="1" parent="1">
                    <mxGeometry x="210" y="150" width="280" height="120" as="geometry"/>
                </mxCell>
                <mxCell id="155" value="" style="shape=tableRow;horizontal=0;startSize=0;swimlaneHead=0;swimlaneBody=0;fillColor=none;collapsible=0;dropTarget=0;points=[[0,0.5],[1,0.5]];portConstraint=eastwest;top=0;left=0;right=0;bottom=1;" vertex="1" parent="154">
                    <mxGeometry y="30" width="280" height="30" as="geometry"/>
                </mxCell>
                <mxCell id="156" value="PK" style="shape=partialRectangle;connectable=0;fillColor=none;top=0;left=0;bottom=0;right=0;fontStyle=1;overflow=hidden;" vertex="1" parent="155">
                    <mxGeometry width="30" height="30" as="geometry">
                        <mxRectangle width="30" height="30" as="alternateBounds"/>
                    </mxGeometry>
                </mxCell>
                <mxCell id="157" value="id INT AUTO_INCREMENT" style="shape=partialRectangle;connectable=0;fillColor=none;top=0;left=0;bottom=0;right=0;align=left;spacingLeft=6;fontStyle=5;overflow=hidden;" vertex="1" parent="155">
                    <mxGeometry x="30" width="250" height="30" as="geometry">
                        <mxRectangle width="250" height="30" as="alternateBounds"/>
                    </mxGeometry>
                </mxCell>
                <mxCell id="158" value="" style="shape=tableRow;horizontal=0;startSize=0;swimlaneHead=0;swimlaneBody=0;fillColor=none;collapsible=0;dropTarget=0;points=[[0,0.5],[1,0.5]];portConstraint=eastwest;top=0;left=0;right=0;bottom=0;" vertex="1" parent="154">
                    <mxGeometry y="60" width="280" height="30" as="geometry"/>
                </mxCell>
                <mxCell id="159" value="" style="shape=partialRectangle;connectable=0;fillColor=none;top=0;left=0;bottom=0;right=0;editable=1;overflow=hidden;" vertex="1" parent="158">
                    <mxGeometry width="30" height="30" as="geometry">
                        <mxRectangle width="30" height="30" as="alternateBounds"/>
                    </mxGeometry>
                </mxCell>
                <mxCell id="160" value="email VARCHAR(30) NOT NULL UNIQUE" style="shape=partialRectangle;connectable=0;fillColor=none;top=0;left=0;bottom=0;right=0;align=left;spacingLeft=6;overflow=hidden;" vertex="1" parent="158">
                    <mxGeometry x="30" width="250" height="30" as="geometry">
                        <mxRectangle width="250" height="30" as="alternateBounds"/>
                    </mxGeometry>
                </mxCell>
                <mxCell id="161" value="" style="shape=tableRow;horizontal=0;startSize=0;swimlaneHead=0;swimlaneBody=0;fillColor=none;collapsible=0;dropTarget=0;points=[[0,0.5],[1,0.5]];portConstraint=eastwest;top=0;left=0;right=0;bottom=0;" vertex="1" parent="154">
                    <mxGeometry y="90" width="280" height="30" as="geometry"/>
                </mxCell>
                <mxCell id="162" value="" style="shape=partialRectangle;connectable=0;fillColor=none;top=0;left=0;bottom=0;right=0;editable=1;overflow=hidden;" vertex="1" parent="161">
                    <mxGeometry width="30" height="30" as="geometry">
                        <mxRectangle width="30" height="30" as="alternateBounds"/>
                    </mxGeometry>
                </mxCell>
                <mxCell id="163" value="password VARCHAR(100) NOT NULL" style="shape=partialRectangle;connectable=0;fillColor=none;top=0;left=0;bottom=0;right=0;align=left;spacingLeft=6;overflow=hidden;" vertex="1" parent="161">
                    <mxGeometry x="30" width="250" height="30" as="geometry">
                        <mxRectangle width="250" height="30" as="alternateBounds"/>
                    </mxGeometry>
                </mxCell>
                <mxCell id="168" value="resume" style="shape=table;startSize=30;container=1;collapsible=1;childLayout=tableLayout;fixedRows=1;rowLines=0;fontStyle=1;align=center;resizeLast=1;" vertex="1" parent="1">
                    <mxGeometry x="610" y="150" width="280" height="180" as="geometry"/>
                </mxCell>
                <mxCell id="169" value="" style="shape=tableRow;horizontal=0;startSize=0;swimlaneHead=0;swimlaneBody=0;fillColor=none;collapsible=0;dropTarget=0;points=[[0,0.5],[1,0.5]];portConstraint=eastwest;top=0;left=0;right=0;bottom=1;" vertex="1" parent="168">
                    <mxGeometry y="30" width="280" height="30" as="geometry"/>
                </mxCell>
                <mxCell id="170" value="PK" style="shape=partialRectangle;connectable=0;fillColor=none;top=0;left=0;bottom=0;right=0;fontStyle=1;overflow=hidden;" vertex="1" parent="169">
                    <mxGeometry width="30" height="30" as="geometry">
                        <mxRectangle width="30" height="30" as="alternateBounds"/>
                    </mxGeometry>
                </mxCell>
                <mxCell id="171" value="id INT AUTO_INCREMENT" style="shape=partialRectangle;connectable=0;fillColor=none;top=0;left=0;bottom=0;right=0;align=left;spacingLeft=6;fontStyle=5;overflow=hidden;" vertex="1" parent="169">
                    <mxGeometry x="30" width="250" height="30" as="geometry">
                        <mxRectangle width="250" height="30" as="alternateBounds"/>
                    </mxGeometry>
                </mxCell>
                <mxCell id="172" value="" style="shape=tableRow;horizontal=0;startSize=0;swimlaneHead=0;swimlaneBody=0;fillColor=none;collapsible=0;dropTarget=0;points=[[0,0.5],[1,0.5]];portConstraint=eastwest;top=0;left=0;right=0;bottom=0;rounded=0;" vertex="1" parent="168">
                    <mxGeometry y="60" width="280" height="30" as="geometry"/>
                </mxCell>
                <mxCell id="173" value="FK" style="shape=partialRectangle;connectable=0;fillColor=none;top=0;left=0;bottom=0;right=0;editable=1;overflow=hidden;" vertex="1" parent="172">
                    <mxGeometry width="30" height="30" as="geometry">
                        <mxRectangle width="30" height="30" as="alternateBounds"/>
                    </mxGeometry>
                </mxCell>
                <mxCell id="174" value="email VARCHAR(30) NOT NULL" style="shape=partialRectangle;connectable=0;fillColor=none;top=0;left=0;bottom=0;right=0;align=left;spacingLeft=6;overflow=hidden;" vertex="1" parent="172">
                    <mxGeometry x="30" width="250" height="30" as="geometry">
                        <mxRectangle width="250" height="30" as="alternateBounds"/>
                    </mxGeometry>
                </mxCell>
                <mxCell id="175" value="" style="shape=tableRow;horizontal=0;startSize=0;swimlaneHead=0;swimlaneBody=0;fillColor=none;collapsible=0;dropTarget=0;points=[[0,0.5],[1,0.5]];portConstraint=eastwest;top=0;left=0;right=0;bottom=0;" vertex="1" parent="168">
                    <mxGeometry y="90" width="280" height="30" as="geometry"/>
                </mxCell>
                <mxCell id="176" value="" style="shape=partialRectangle;connectable=0;fillColor=none;top=0;left=0;bottom=0;right=0;editable=1;overflow=hidden;" vertex="1" parent="175">
                    <mxGeometry width="30" height="30" as="geometry">
                        <mxRectangle width="30" height="30" as="alternateBounds"/>
                    </mxGeometry>
                </mxCell>
                <mxCell id="177" value="title VARCHAR(100) NOT NULL" style="shape=partialRectangle;connectable=0;fillColor=none;top=0;left=0;bottom=0;right=0;align=left;spacingLeft=6;overflow=hidden;" vertex="1" parent="175">
                    <mxGeometry x="30" width="250" height="30" as="geometry">
                        <mxRectangle width="250" height="30" as="alternateBounds"/>
                    </mxGeometry>
                </mxCell>
                <mxCell id="178" style="shape=tableRow;horizontal=0;startSize=0;swimlaneHead=0;swimlaneBody=0;fillColor=none;collapsible=0;dropTarget=0;points=[[0,0.5],[1,0.5]];portConstraint=eastwest;top=0;left=0;right=0;bottom=0;" vertex="1" parent="168">
                    <mxGeometry y="120" width="280" height="30" as="geometry"/>
                </mxCell>
                <mxCell id="179" style="shape=partialRectangle;connectable=0;fillColor=none;top=0;left=0;bottom=0;right=0;editable=1;overflow=hidden;" vertex="1" parent="178">
                    <mxGeometry width="30" height="30" as="geometry">
                        <mxRectangle width="30" height="30" as="alternateBounds"/>
                    </mxGeometry>
                </mxCell>
                <mxCell id="180" value="content JSON NOT NULL" style="shape=partialRectangle;connectable=0;fillColor=none;top=0;left=0;bottom=0;right=0;align=left;spacingLeft=6;overflow=hidden;" vertex="1" parent="178">
                    <mxGeometry x="30" width="250" height="30" as="geometry">
                        <mxRectangle width="250" height="30" as="alternateBounds"/>
                    </mxGeometry>
                </mxCell>
                <mxCell id="181" style="shape=tableRow;horizontal=0;startSize=0;swimlaneHead=0;swimlaneBody=0;fillColor=none;collapsible=0;dropTarget=0;points=[[0,0.5],[1,0.5]];portConstraint=eastwest;top=0;left=0;right=0;bottom=0;" vertex="1" parent="168">
                    <mxGeometry y="150" width="280" height="30" as="geometry"/>
                </mxCell>
                <mxCell id="182" style="shape=partialRectangle;connectable=0;fillColor=none;top=0;left=0;bottom=0;right=0;editable=1;overflow=hidden;" vertex="1" parent="181">
                    <mxGeometry width="30" height="30" as="geometry">
                        <mxRectangle width="30" height="30" as="alternateBounds"/>
                    </mxGeometry>
                </mxCell>
                <mxCell id="183" value="modified TIMESTAMP CURRENT" style="shape=partialRectangle;connectable=0;fillColor=none;top=0;left=0;bottom=0;right=0;align=left;spacingLeft=6;overflow=hidden;" vertex="1" parent="181">
                    <mxGeometry x="30" width="250" height="30" as="geometry">
                        <mxRectangle width="250" height="30" as="alternateBounds"/>
                    </mxGeometry>
                </mxCell>
                <mxCell id="184" value="letter" style="shape=table;startSize=30;container=1;collapsible=1;childLayout=tableLayout;fixedRows=1;rowLines=0;fontStyle=1;align=center;resizeLast=1;" vertex="1" parent="1">
                    <mxGeometry x="210" y="390" width="280" height="300" as="geometry"/>
                </mxCell>
                <mxCell id="185" value="" style="shape=tableRow;horizontal=0;startSize=0;swimlaneHead=0;swimlaneBody=0;fillColor=none;collapsible=0;dropTarget=0;points=[[0,0.5],[1,0.5]];portConstraint=eastwest;top=0;left=0;right=0;bottom=1;" vertex="1" parent="184">
                    <mxGeometry y="30" width="280" height="30" as="geometry"/>
                </mxCell>
                <mxCell id="186" value="PK" style="shape=partialRectangle;connectable=0;fillColor=none;top=0;left=0;bottom=0;right=0;fontStyle=1;overflow=hidden;" vertex="1" parent="185">
                    <mxGeometry width="30" height="30" as="geometry">
                        <mxRectangle width="30" height="30" as="alternateBounds"/>
                    </mxGeometry>
                </mxCell>
                <mxCell id="187" value="id INT AUTO_INCREMENT" style="shape=partialRectangle;connectable=0;fillColor=none;top=0;left=0;bottom=0;right=0;align=left;spacingLeft=6;fontStyle=5;overflow=hidden;" vertex="1" parent="185">
                    <mxGeometry x="30" width="250" height="30" as="geometry">
                        <mxRectangle width="250" height="30" as="alternateBounds"/>
                    </mxGeometry>
                </mxCell>
                <mxCell id="188" value="" style="shape=tableRow;horizontal=0;startSize=0;swimlaneHead=0;swimlaneBody=0;fillColor=none;collapsible=0;dropTarget=0;points=[[0,0.5],[1,0.5]];portConstraint=eastwest;top=0;left=0;right=0;bottom=0;rounded=0;" vertex="1" parent="184">
                    <mxGeometry y="60" width="280" height="30" as="geometry"/>
                </mxCell>
                <mxCell id="189" value="FK" style="shape=partialRectangle;connectable=0;fillColor=none;top=0;left=0;bottom=0;right=0;editable=1;overflow=hidden;" vertex="1" parent="188">
                    <mxGeometry width="30" height="30" as="geometry">
                        <mxRectangle width="30" height="30" as="alternateBounds"/>
                    </mxGeometry>
                </mxCell>
                <mxCell id="190" value="email VARCHAR(30) NOT NULL" style="shape=partialRectangle;connectable=0;fillColor=none;top=0;left=0;bottom=0;right=0;align=left;spacingLeft=6;overflow=hidden;" vertex="1" parent="188">
                    <mxGeometry x="30" width="250" height="30" as="geometry">
                        <mxRectangle width="250" height="30" as="alternateBounds"/>
                    </mxGeometry>
                </mxCell>
                <mxCell id="200" style="shape=tableRow;horizontal=0;startSize=0;swimlaneHead=0;swimlaneBody=0;fillColor=none;collapsible=0;dropTarget=0;points=[[0,0.5],[1,0.5]];portConstraint=eastwest;top=0;left=0;right=0;bottom=0;rounded=0;" vertex="1" parent="184">
                    <mxGeometry y="90" width="280" height="30" as="geometry"/>
                </mxCell>
                <mxCell id="201" value="FK" style="shape=partialRectangle;connectable=0;fillColor=none;top=0;left=0;bottom=0;right=0;editable=1;overflow=hidden;" vertex="1" parent="200">
                    <mxGeometry width="30" height="30" as="geometry">
                        <mxRectangle width="30" height="30" as="alternateBounds"/>
                    </mxGeometry>
                </mxCell>
                <mxCell id="202" value="resume_id INT NOT NULL" style="shape=partialRectangle;connectable=0;fillColor=none;top=0;left=0;bottom=0;right=0;align=left;spacingLeft=6;overflow=hidden;" vertex="1" parent="200">
                    <mxGeometry x="30" width="250" height="30" as="geometry">
                        <mxRectangle width="250" height="30" as="alternateBounds"/>
                    </mxGeometry>
                </mxCell>
                <mxCell id="191" value="" style="shape=tableRow;horizontal=0;startSize=0;swimlaneHead=0;swimlaneBody=0;fillColor=none;collapsible=0;dropTarget=0;points=[[0,0.5],[1,0.5]];portConstraint=eastwest;top=0;left=0;right=0;bottom=0;" vertex="1" parent="184">
                    <mxGeometry y="120" width="280" height="30" as="geometry"/>
                </mxCell>
                <mxCell id="192" value="" style="shape=partialRectangle;connectable=0;fillColor=none;top=0;left=0;bottom=0;right=0;editable=1;overflow=hidden;" vertex="1" parent="191">
                    <mxGeometry width="30" height="30" as="geometry">
                        <mxRectangle width="30" height="30" as="alternateBounds"/>
                    </mxGeometry>
                </mxCell>
                <mxCell id="193" value="title VARCHAR(100) NOT NULL" style="shape=partialRectangle;connectable=0;fillColor=none;top=0;left=0;bottom=0;right=0;align=left;spacingLeft=6;overflow=hidden;" vertex="1" parent="191">
                    <mxGeometry x="30" width="250" height="30" as="geometry">
                        <mxRectangle width="250" height="30" as="alternateBounds"/>
                    </mxGeometry>
                </mxCell>
                <mxCell id="206" style="shape=tableRow;horizontal=0;startSize=0;swimlaneHead=0;swimlaneBody=0;fillColor=none;collapsible=0;dropTarget=0;points=[[0,0.5],[1,0.5]];portConstraint=eastwest;top=0;left=0;right=0;bottom=0;" vertex="1" parent="184">
                    <mxGeometry y="150" width="280" height="30" as="geometry"/>
                </mxCell>
                <mxCell id="207" style="shape=partialRectangle;connectable=0;fillColor=none;top=0;left=0;bottom=0;right=0;editable=1;overflow=hidden;" vertex="1" parent="206">
                    <mxGeometry width="30" height="30" as="geometry">
                        <mxRectangle width="30" height="30" as="alternateBounds"/>
                    </mxGeometry>
                </mxCell>
                <mxCell id="208" value="company VARCHAR(100) NOT NULL" style="shape=partialRectangle;connectable=0;fillColor=none;top=0;left=0;bottom=0;right=0;align=left;spacingLeft=6;overflow=hidden;" vertex="1" parent="206">
                    <mxGeometry x="30" width="250" height="30" as="geometry">
                        <mxRectangle width="250" height="30" as="alternateBounds"/>
                    </mxGeometry>
                </mxCell>
                <mxCell id="209" style="shape=tableRow;horizontal=0;startSize=0;swimlaneHead=0;swimlaneBody=0;fillColor=none;collapsible=0;dropTarget=0;points=[[0,0.5],[1,0.5]];portConstraint=eastwest;top=0;left=0;right=0;bottom=0;" vertex="1" parent="184">
                    <mxGeometry y="180" width="280" height="30" as="geometry"/>
                </mxCell>
                <mxCell id="210" style="shape=partialRectangle;connectable=0;fillColor=none;top=0;left=0;bottom=0;right=0;editable=1;overflow=hidden;" vertex="1" parent="209">
                    <mxGeometry width="30" height="30" as="geometry">
                        <mxRectangle width="30" height="30" as="alternateBounds"/>
                    </mxGeometry>
                </mxCell>
                <mxCell id="211" value="job VARCHAR(100) NOT NULL" style="shape=partialRectangle;connectable=0;fillColor=none;top=0;left=0;bottom=0;right=0;align=left;spacingLeft=6;overflow=hidden;" vertex="1" parent="209">
                    <mxGeometry x="30" width="250" height="30" as="geometry">
                        <mxRectangle width="250" height="30" as="alternateBounds"/>
                    </mxGeometry>
                </mxCell>
                <mxCell id="212" style="shape=tableRow;horizontal=0;startSize=0;swimlaneHead=0;swimlaneBody=0;fillColor=none;collapsible=0;dropTarget=0;points=[[0,0.5],[1,0.5]];portConstraint=eastwest;top=0;left=0;right=0;bottom=0;" vertex="1" parent="184">
                    <mxGeometry y="210" width="280" height="30" as="geometry"/>
                </mxCell>
                <mxCell id="213" style="shape=partialRectangle;connectable=0;fillColor=none;top=0;left=0;bottom=0;right=0;editable=1;overflow=hidden;" vertex="1" parent="212">
                    <mxGeometry width="30" height="30" as="geometry">
                        <mxRectangle width="30" height="30" as="alternateBounds"/>
                    </mxGeometry>
                </mxCell>
                <mxCell id="214" value="content JSON NOT NULL" style="shape=partialRectangle;connectable=0;fillColor=none;top=0;left=0;bottom=0;right=0;align=left;spacingLeft=6;overflow=hidden;" vertex="1" parent="212">
                    <mxGeometry x="30" width="250" height="30" as="geometry">
                        <mxRectangle width="250" height="30" as="alternateBounds"/>
                    </mxGeometry>
                </mxCell>
                <mxCell id="194" style="shape=tableRow;horizontal=0;startSize=0;swimlaneHead=0;swimlaneBody=0;fillColor=none;collapsible=0;dropTarget=0;points=[[0,0.5],[1,0.5]];portConstraint=eastwest;top=0;left=0;right=0;bottom=0;" vertex="1" parent="184">
                    <mxGeometry y="240" width="280" height="30" as="geometry"/>
                </mxCell>
                <mxCell id="195" style="shape=partialRectangle;connectable=0;fillColor=none;top=0;left=0;bottom=0;right=0;editable=1;overflow=hidden;" vertex="1" parent="194">
                    <mxGeometry width="30" height="30" as="geometry">
                        <mxRectangle width="30" height="30" as="alternateBounds"/>
                    </mxGeometry>
                </mxCell>
                <mxCell id="196" value="content JSON" style="shape=partialRectangle;connectable=0;fillColor=none;top=0;left=0;bottom=0;right=0;align=left;spacingLeft=6;overflow=hidden;" vertex="1" parent="194">
                    <mxGeometry x="30" width="250" height="30" as="geometry">
                        <mxRectangle width="250" height="30" as="alternateBounds"/>
                    </mxGeometry>
                </mxCell>
                <mxCell id="197" style="shape=tableRow;horizontal=0;startSize=0;swimlaneHead=0;swimlaneBody=0;fillColor=none;collapsible=0;dropTarget=0;points=[[0,0.5],[1,0.5]];portConstraint=eastwest;top=0;left=0;right=0;bottom=0;" vertex="1" parent="184">
                    <mxGeometry y="270" width="280" height="30" as="geometry"/>
                </mxCell>
                <mxCell id="198" style="shape=partialRectangle;connectable=0;fillColor=none;top=0;left=0;bottom=0;right=0;editable=1;overflow=hidden;" vertex="1" parent="197">
                    <mxGeometry width="30" height="30" as="geometry">
                        <mxRectangle width="30" height="30" as="alternateBounds"/>
                    </mxGeometry>
                </mxCell>
                <mxCell id="199" value="modified TIMESTAMP CURRENT" style="shape=partialRectangle;connectable=0;fillColor=none;top=0;left=0;bottom=0;right=0;align=left;spacingLeft=6;overflow=hidden;" vertex="1" parent="197">
                    <mxGeometry x="30" width="250" height="30" as="geometry">
                        <mxRectangle width="250" height="30" as="alternateBounds"/>
                    </mxGeometry>
                </mxCell>
                <mxCell id="215" value="keyword" style="shape=table;startSize=30;container=1;collapsible=1;childLayout=tableLayout;fixedRows=1;rowLines=0;fontStyle=1;align=center;resizeLast=1;" vertex="1" parent="1">
                    <mxGeometry x="610" y="480" width="280" height="120" as="geometry"/>
                </mxCell>
                <mxCell id="216" value="" style="shape=tableRow;horizontal=0;startSize=0;swimlaneHead=0;swimlaneBody=0;fillColor=none;collapsible=0;dropTarget=0;points=[[0,0.5],[1,0.5]];portConstraint=eastwest;top=0;left=0;right=0;bottom=1;" vertex="1" parent="215">
                    <mxGeometry y="30" width="280" height="30" as="geometry"/>
                </mxCell>
                <mxCell id="217" value="PK" style="shape=partialRectangle;connectable=0;fillColor=none;top=0;left=0;bottom=0;right=0;fontStyle=1;overflow=hidden;" vertex="1" parent="216">
                    <mxGeometry width="30" height="30" as="geometry">
                        <mxRectangle width="30" height="30" as="alternateBounds"/>
                    </mxGeometry>
                </mxCell>
                <mxCell id="218" value="id INT AUTO_INCREMENT" style="shape=partialRectangle;connectable=0;fillColor=none;top=0;left=0;bottom=0;right=0;align=left;spacingLeft=6;fontStyle=5;overflow=hidden;" vertex="1" parent="216">
                    <mxGeometry x="30" width="250" height="30" as="geometry">
                        <mxRectangle width="250" height="30" as="alternateBounds"/>
                    </mxGeometry>
                </mxCell>
                <mxCell id="219" value="" style="shape=tableRow;horizontal=0;startSize=0;swimlaneHead=0;swimlaneBody=0;fillColor=none;collapsible=0;dropTarget=0;points=[[0,0.5],[1,0.5]];portConstraint=eastwest;top=0;left=0;right=0;bottom=0;" vertex="1" parent="215">
                    <mxGeometry y="60" width="280" height="30" as="geometry"/>
                </mxCell>
                <mxCell id="220" value="" style="shape=partialRectangle;connectable=0;fillColor=none;top=0;left=0;bottom=0;right=0;editable=1;overflow=hidden;" vertex="1" parent="219">
                    <mxGeometry width="30" height="30" as="geometry">
                        <mxRectangle width="30" height="30" as="alternateBounds"/>
                    </mxGeometry>
                </mxCell>
                <mxCell id="221" value="company VARCHAR(40) NOT NULL UNI" style="shape=partialRectangle;connectable=0;fillColor=none;top=0;left=0;bottom=0;right=0;align=left;spacingLeft=6;overflow=hidden;" vertex="1" parent="219">
                    <mxGeometry x="30" width="250" height="30" as="geometry">
                        <mxRectangle width="250" height="30" as="alternateBounds"/>
                    </mxGeometry>
                </mxCell>
                <mxCell id="222" value="" style="shape=tableRow;horizontal=0;startSize=0;swimlaneHead=0;swimlaneBody=0;fillColor=none;collapsible=0;dropTarget=0;points=[[0,0.5],[1,0.5]];portConstraint=eastwest;top=0;left=0;right=0;bottom=0;" vertex="1" parent="215">
                    <mxGeometry y="90" width="280" height="30" as="geometry"/>
                </mxCell>
                <mxCell id="223" value="" style="shape=partialRectangle;connectable=0;fillColor=none;top=0;left=0;bottom=0;right=0;editable=1;overflow=hidden;" vertex="1" parent="222">
                    <mxGeometry width="30" height="30" as="geometry">
                        <mxRectangle width="30" height="30" as="alternateBounds"/>
                    </mxGeometry>
                </mxCell>
                <mxCell id="224" value="keyword JSON NOT NULL" style="shape=partialRectangle;connectable=0;fillColor=none;top=0;left=0;bottom=0;right=0;align=left;spacingLeft=6;overflow=hidden;" vertex="1" parent="222">
                    <mxGeometry x="30" width="250" height="30" as="geometry">
                        <mxRectangle width="250" height="30" as="alternateBounds"/>
                    </mxGeometry>
                </mxCell>
                <mxCell id="225" value="" style="edgeStyle=entityRelationEdgeStyle;fontSize=12;html=1;endArrow=ERzeroToMany;startArrow=ERmandOne;entryX=0;entryY=0.5;entryDx=0;entryDy=0;exitX=1;exitY=0.5;exitDx=0;exitDy=0;" edge="1" parent="1" source="155" target="169">
                    <mxGeometry width="100" height="100" relative="1" as="geometry">
                        <mxPoint x="490" y="530" as="sourcePoint"/>
                        <mxPoint x="590" y="430" as="targetPoint"/>
                    </mxGeometry>
                </mxCell>
                <mxCell id="226" value="" style="fontSize=12;html=1;endArrow=ERzeroToMany;startArrow=ERmandOne;exitX=0.497;exitY=0.992;exitDx=0;exitDy=0;exitPerimeter=0;" edge="1" parent="1" source="161">
                    <mxGeometry width="100" height="100" relative="1" as="geometry">
                        <mxPoint x="500" y="530" as="sourcePoint"/>
                        <mxPoint x="350" y="390" as="targetPoint"/>
                    </mxGeometry>
                </mxCell>
                <mxCell id="228" value="" style="edgeStyle=orthogonalEdgeStyle;fontSize=12;html=1;endArrow=ERzeroToMany;startArrow=ERmandOne;exitX=0;exitY=0.5;exitDx=0;exitDy=0;" edge="1" parent="1" source="178">
                    <mxGeometry width="100" height="100" relative="1" as="geometry">
                        <mxPoint x="510" y="470" as="sourcePoint"/>
                        <mxPoint x="420" y="390" as="targetPoint"/>
                    </mxGeometry>
                </mxCell>
                <mxCell id="229" value="" style="edgeStyle=orthogonalEdgeStyle;fontSize=12;html=1;endArrow=ERzeroToMany;startArrow=ERzeroToOne;exitX=0;exitY=0.5;exitDx=0;exitDy=0;" edge="1" parent="1" source="219" target="206">
                    <mxGeometry width="100" height="100" relative="1" as="geometry">
                        <mxPoint x="510" y="520" as="sourcePoint"/>
                        <mxPoint x="610" y="420" as="targetPoint"/>
                    </mxGeometry>
                </mxCell>
            </root>
        </mxGraphModel>
    </diagram>
</mxfile>